/* XPM */
static char *b0rjk_tvq4o[] = {
/* columns rows colors chars-per-pixel */
"32 32 22 1 ",
"  c #2D4020",
". c #2E4220",
"X c #2F4321",
"o c #304422",
"O c #304622",
"+ c #314723",
"@ c #324824",
"# c #334A24",
"$ c #344B25",
"% c #354C26",
"& c #364E26",
"* c #374F27",
"= c #385028",
"- c #395228",
"; c #3A5329",
": c #3B542A",
"> c #3C562A",
", c #3D572B",
"< c #3D592B",
"1 c #3E5A2C",
"2 c #3F5B2D",
"3 c #405D2D",
/* pixels */
"@2=:=O:-;#,=*=#$#>&>@%O,#&&#=@-%",
"<:,@%+-,&=:&;;$$&;+-#O::##@;$-=,",
"O$&O.&=&=*@@+:*X ;1@&>;-%%<;,+o:",
"&,<:@@#o##:%@%O=$$o;$**%,,-+oO;,",
"o;*2;%==1@&X:&@o=;%**&O&;*<+$=@:",
"#.O;2-@$=#=#%=+*#@$%*#*-*o%$>o*=",
"<+&;=O:-<<=-O@#;;#-o>#$>=<%=o@O-",
">o1o#->=;**;&&%*;+;##-o=;%,;#<;-",
"$-*%X==%+*%=%-++;@>=*&**&@*#-*Xo",
":$@#&o=O=$;+O*=%$-@;%;@&$1*-=+&=",
"*$&&#*:>$=-=+1X&#o#$O#O-@@-$.,@=",
":%>$#o%$<&=--;==-:,o$-$*++@#X*%>",
"$$;@X@;%$#<1#o-& *;&-==&%#:=%#$=",
"#;&,@&O=&#@:$&@1==,*:>#@#*@$&-*;",
"+;O=.;&@=-=:=@:@*.;&-&,&@+-;;=:<",
"@oX%%=o# X:%&:*;$1*o,.=*1=;1;,>&",
"O:&%&#;.oO&+++o*:$*<*#o-=*& ;;*:",
"@+-:;,-+$%&+$Xo+&=*-3**#%%:,*%*#",
"* :;*$,&&%*-=@*$@ :=:%O;@-.2>o%,",
"*;&%%=#@-<-oo$=&&*$#<-=$o%X,@>X%",
"@-;*$&%%==%=,&1$o:.;2=;o>$$O&o@$",
"%-@=:@;*:#2&#;o:&**%X$;$o=*#X$OO",
">%&X>@=-&2X##+#-=%=--%;%%+%O-@@:",
"%$.#*#@*X;2,&OO# *@+:%@%*oOXo#;X",
";3@o-,,$:#,*#o*;#%+&-<%&=:o;-&o2",
"%-@$#-;>$o:%=+.;;$$.$:@@$<;&=-&.",
"=+**%=:*-*%#X:=:#>#:*.X&=o%=$--@",
"%@%>**2, $#$-&o=%&=*OO*&%@&2=&o;",
";:$+$#:>%#:*&%%@>*%<=1@@%*+-#*$=",
"#$=;&3%;&*%-+.>$$=#&=*=@+;*=:@#,",
"#$**#2%%%--,O-=@=<:$>=#%$:=o<#>&",
"=@O:=#*&@**=1@$$;;$X%;;>&;o:O$*&"
};
