/* XPM */
static char *qfiyg_prji3[] = {
/* columns rows colors chars-per-pixel */
"32 32 48 1 ",
"  c #2E2B2D",
". c #2D312D",
"X c #362F31",
"o c #353434",
"O c #383430",
"+ c #393B34",
"@ c #36363A",
"# c #35393A",
"$ c #3B3C3C",
"% c #404039",
"& c #383D40",
"* c #413E41",
"= c #434244",
"- c #4A4347",
"; c #4B4A46",
": c #4C4C4C",
"> c #524E4E",
", c #4D514C",
"< c #52514E",
"1 c #4E4D50",
"2 c #544E52",
"3 c #4E5152",
"4 c #535453",
"5 c #595655",
"6 c #565A55",
"7 c #5B5A55",
"8 c #555559",
"9 c #5A565A",
"0 c #565B5B",
"q c #5C5C5C",
"w c #615D5D",
"e c #5D615D",
"r c #61625E",
"t c #5D5D61",
"y c #625E62",
"u c #5E6262",
"i c #636363",
"p c #696564",
"a c #656965",
"s c #696964",
"d c #656569",
"f c #6A666A",
"g c #666B6B",
"h c #6A6A6B",
"j c #6D716D",
"k c #70746C",
"l c #6F6B71",
"z c #737374",
/* pixels */
"haq2rhzlwqgife1=qaw>4yapyqqeq55i",
"9qaiiiuaaq740i4 :qifyypitq9w9wq5",
"wqqqugfdalzjt8, 4qtqqqwryyqq7855",
"fahaii599yudid0#qshauqeqtwfypiui",
"t00iiiratiyipf8$3q0qiqq008<875qw",
"5qqisuiyifg5<<:X;8ttiifiaaii0w47",
"54tqauqtu0t3+o:X;40qqq96465239qq",
"utyiiiiiitq3oo4$4yiyqiyqeq0qwtiq",
"qqqq0qrwaiy4:;:+4qe6q458wwtqq695",
"uqqq67qqqeiiqy3&0req0qetrriw49qq",
"tw4iiqq0657qqe4=2w8qqqqq6477q7tq",
"yqafyrqtiwe0qr5=4qhhirqwiiripriy",
"qwqwrhfsut66eq,=2rqwiaiiiq70quru",
"952899qqyw60004=:4249qwqyw600qtq",
"wieuruiawwqqr0:=4uqqridsyitqeqqy",
"qyqqwtytqyrdqe<=4ittiqwtyipgiiqi",
"ihhierwy7qepeq5&4lhaaatshjhfiqqq",
"qqaiap64qq00qq2+4wafi39tihjkpeq0",
"pieqq889wq760w,O4ieq0hfftuequerr",
"qer0817qq9q47q>.:ui08qt089988457",
"teqirwitrqq699>o4eqyufatre644qqq",
"uq459qqqqyssaw1@4q3565597tesiqqq",
"qqqetqqq446qwr4$3tqrifiw424iasii",
"ttrqq5079q87003o4ureiqq7qq8578qq",
"qe9q06qu0quriu4o4r9qqqrrqwuaauqq",
"yqwwwfiuqq67qq,%29wq9qqqtiqeqtqr",
"9qqqqqerii90qi4&2>:4q9q0qwiq0qyq",
"qqqqq276487746;$:o@:q9qt0q55470q",
"87789e6uqre7qq1$1oO:9q0ew0qq094q",
"rprituqeeuqrt05-9544tuwq7rpqquiy",
"7q7qq00480wrqt:*;q709tuqqeiri89q",
"88q5q0teq86548:@:8qqqqeq0gtwqw44"
};
