/* XPM */
static char *mdi7y_26qz9[] = {
/* columns rows colors chars-per-pixel */
"32 32 113 2 ",
"   c #1E1603",
".  c #1F1703",
"X  c #221803",
"o  c #231903",
"O  c #251A03",
"+  c #251B03",
"@  c #261C04",
"#  c #281C04",
"$  c #291D04",
"%  c #2A1D04",
"&  c #2D1F05",
"*  c #2E2005",
"=  c #2F2005",
"-  c #302105",
";  c #312205",
":  c #322205",
">  c #332305",
",  c #342405",
"<  c #342406",
"1  c #352506",
"2  c #392807",
"3  c #3B2807",
"4  c #3D2A08",
"5  c #3E2A08",
"6  c #3F2B08",
"7  c #402C08",
"8  c #422C08",
"9  c #432D08",
"0  c #432D09",
"q  c #452F09",
"w  c #462F09",
"e  c #473009",
"r  c #48310A",
"t  c #4A310A",
"y  c #4B320A",
"u  c #4C330B",
"i  c #4C340A",
"p  c #4E340A",
"a  c #4E340B",
"s  c #4E350B",
"d  c #4F350B",
"f  c #50350A",
"g  c #50350B",
"h  c #51360A",
"j  c #51360B",
"k  c #52360B",
"l  c #53370B",
"z  c #50360C",
"x  c #51360C",
"c  c #52370C",
"v  c #53370C",
"b  c #55380A",
"n  c #54380B",
"m  c #56390B",
"M  c #53380C",
"N  c #54380C",
"B  c #54390C",
"V  c #55390C",
"C  c #56390C",
"Z  c #573A0C",
"A  c #573A0D",
"S  c #583B0C",
"D  c #583B0D",
"F  c #593C0C",
"G  c #5A3C0C",
"H  c #5B3C0C",
"J  c #5A3C0D",
"K  c #5B3D0D",
"L  c #5B3D0E",
"P  c #5C3D0C",
"I  c #5C3D0D",
"U  c #5C3E0C",
"Y  c #5D3E0C",
"T  c #5D3E0D",
"R  c #5D3F0D",
"E  c #5E3E0D",
"W  c #5E3F0D",
"Q  c #5F3F0D",
"!  c #5C3E0E",
"~  c #5D3E0E",
"^  c #5E3E0E",
"/  c #5E3F0E",
"(  c #5F3F0F",
")  c #5E400C",
"_  c #61400C",
"`  c #60400D",
"'  c #62410D",
"]  c #62420D",
"[  c #63420D",
"{  c #60400E",
"}  c #61410E",
"|  c #60400F",
" . c #61410F",
".. c #62420E",
"X. c #62420F",
"o. c #63420F",
"O. c #64420E",
"+. c #64430F",
"@. c #66440D",
"#. c #66440E",
"$. c #67450E",
"%. c #68460E",
"&. c #6A460E",
"*. c #634310",
"=. c #644310",
"-. c #654310",
";. c #654410",
":. c #664410",
">. c #674410",
",. c #684510",
"<. c #6B4711",
"1. c #6C4811",
"2. c #6E4911",
/* pixels */
"A F S F Z B 5 # 6 c z n S B z I S B c H S C M I Z z B B C z M c ",
"C ` H T ` B B - B C H } -...` } ..` -.-.,.O.-.,.-.-.D A C A B D ",
"A D T n z y 5 > 4 d T ` I H ` I H F ` H I ..} -.-.` ! | ( ^ A A ",
"! ! j p r r 7 # 6 q r s M M x N Z V c v Z D L <.1.L ^ L ! ! J C ",
"D T H H F C 4 - r s B D J ~ { } o.o.=.:.:.:.+.....` ! C D D D A ",
"L O.T } I D u * w a S ` ` T H I I ` H T H H ` H T Z c d B d c D ",
"C B V H c M 7 ; 4 u d n f c u Z S z d V Z a t n Z d c c c c d B ",
"6 5 6 < ; $ o o & $ < > 5 5 7 > = - # @ X O & + # - ; : , > 4 3 ",
"S Z B z Y Y A c G Y c d ' P z d m b d a V V y $ 7 d l Z l Z z c ",
"H H H ' ' ' %.$.%.@.&.1.&.&.1.<.%.[ _ I T ` j % a c j } T ..( ^ ",
"T I T ) [ 1.<.<.2.<.%.) [ ' @.) P ' Y V Z i p % z u A -.O.A A C ",
"I I I O.#.} Q ' ] W K R U Z k n n g p h b i 4 7 2 0 y y y d B B ",
"D D /  .*.*.*.=.;.;.>.>.>.:.:.:.-.X.{ E Z S u ; d c c T Q ~ ! L ",
"A J H S T H F T T } ` T I } ` T T T ` H I H a o a y ` T H I B J ",
"z z C V V d M H p y e j i r y p n z c n j a 5 % a C F F Z F C M ",
"7 7 7 - $ .   X X + - ; ; 4 - = - < 1 > $ # # X # # > 8 9 8 8 6 ",
"I Z z B B C z M c A F S F Z B 5 # 6 c z n S B z I S B c H S C M ",
",.-.-.D A C A B D C ` H T ` B B - B C H } -...` } ..` -.-.,.O.-.",
"-.-.` ! | ( ^ A A A D T n z y 5 > 4 d T ` I H ` I H F ` H I ..} ",
"<.1.L ^ L ! ! J C ! ! j p r r 7 # 6 q r s M M x N Z V c v Z D L ",
"....` ! C D D D A D T H H F C 4 - r s B D J ~ { } o.o.=.:.:.:.+.",
"H T Z c d B d c D L O.T } I D u * w a S ` ` T H I I ` H T H H ` ",
"n Z d c c c c d B C B V H c M 7 ; 4 u d n f c u Z S z d V Z a t ",
"+ # - ; : , > 4 3 6 5 6 < ; $ o o & $ < > 5 5 7 > = - # @ X O & ",
"$ 7 d l Z l Z z c S Z B z Y Y A c G Y c d ' P z d m b d a V V y ",
"% a c j } T ..( ^ H H H ' ' ' %.$.%.@.&.1.&.&.1.<.%.[ _ I T ` j ",
"% z u A -.O.A A C T I T ) [ 1.<.<.2.<.%.) [ ' @.) P ' Y V Z i p ",
"7 2 0 y y y d B B I I I O.#.} Q ' ] W K R U Z k n n g p h b i 4 ",
"; d c c T Q ~ ! L D D /  .*.*.*.=.;.;.>.>.>.:.:.:.-.X.{ E Z S u ",
"o a y ` T H I B J A J H S T H F T T } ` T I } ` T T T ` H I H a ",
"% a C F F Z F C M z z C V V d M H p y e j i r y p n z c n j a 5 ",
"X # # > 8 9 8 8 6 7 7 7 - $ .   X X + - ; ; 4 - = - < 1 > $ # # "
};
